<svg width="20" height="20" viewBox="0 0 20 20" fill="none" xmlns="http://www.w3.org/2000/svg">
<path d="M7.27861 9.59632C6.79681 8.39457 6.74472 7.06334 7.13115 5.82762C7.51757 4.59191 8.3188 3.52751 9.39941 2.81435C10.48 2.10119 11.7737 1.78301 13.0618 1.91359C14.35 2.04417 15.5535 2.6155 16.469 3.53101C17.3845 4.44652 17.9558 5.65005 18.0864 6.93818C18.217 8.2263 17.8988 9.52 17.1856 10.6006C16.4725 11.6812 15.4081 12.4824 14.1724 12.8689C12.9367 13.2553 11.6054 13.2032 10.4037 12.7214L9.375 13.75H7.5V15.625H5.625V17.5H2.5V14.375L7.27861 9.59632Z" stroke="black" stroke-width="2" stroke-linecap="round" stroke-linejoin="round"/>
<path d="M14.0625 6.875C14.5803 6.875 15 6.45527 15 5.9375C15 5.41973 14.5803 5 14.0625 5C13.5447 5 13.125 5.41973 13.125 5.9375C13.125 6.45527 13.5447 6.875 14.0625 6.875Z" fill="black"/>
</svg>
