<svg width="40" height="39" viewBox="0 0 40 39" fill="none" xmlns="http://www.w3.org/2000/svg">
<path fill-rule="evenodd" clip-rule="evenodd" d="M15.9437 26.9195C16.8674 26.9981 18.0687 27 19.8584 27C21.6481 27 22.8494 26.9981 23.7731 26.9195C24.6688 26.8433 25.0949 26.7075 25.3761 26.5572C26.0302 26.2076 26.566 25.6718 26.9156 25.0177C27.0659 24.7365 27.2017 24.3104 27.2779 23.4147C27.3565 22.491 27.3584 21.2897 27.3584 19.5C27.3584 17.7103 27.3565 16.509 27.2779 15.5853C27.2017 14.6896 27.0659 14.2635 26.9156 13.9823C26.566 13.3282 26.0302 12.7924 25.3761 12.4428C25.0949 12.2925 24.6688 12.1567 23.7731 12.0805C22.8494 12.0019 21.6481 12 19.8584 12C18.0687 12 16.8674 12.0019 15.9437 12.0805C15.048 12.1567 14.6219 12.2925 14.3407 12.4428C13.6866 12.7924 13.1508 13.3282 12.8012 13.9823C12.6509 14.2635 12.5151 14.6896 12.4389 15.5853C12.3603 16.509 12.3584 17.7103 12.3584 19.5C12.3584 21.2897 12.3603 22.491 12.4389 23.4147C12.5151 24.3104 12.6509 24.7365 12.8012 25.0177C13.1508 25.6718 13.6866 26.2076 14.3407 26.5572C14.6219 26.7075 15.048 26.8433 15.9437 26.9195ZM10.8169 12.9216C10.1084 14.2471 10.1084 15.9981 10.1084 19.5C10.1084 23.0019 10.1084 24.7529 10.8169 26.0784C11.3763 27.1249 12.2335 27.9821 13.28 28.5415C14.6055 29.25 16.3565 29.25 19.8584 29.25C23.3603 29.25 25.1113 29.25 26.4368 28.5415C27.4833 27.9821 28.3405 27.1249 28.8999 26.0784C29.6084 24.7529 29.6084 23.0019 29.6084 19.5C29.6084 15.9981 29.6084 14.2471 28.8999 12.9216C28.3405 11.8751 27.4833 11.0179 26.4368 10.4585C25.1113 9.75 23.3603 9.75 19.8584 9.75C16.3565 9.75 14.6055 9.75 13.28 10.4585C12.2335 11.0179 11.3763 11.8751 10.8169 12.9216ZM19.8584 21.75C21.101 21.75 22.1084 20.7426 22.1084 19.5C22.1084 18.2574 21.101 17.25 19.8584 17.25C18.6158 17.25 17.6084 18.2574 17.6084 19.5C17.6084 20.7426 18.6158 21.75 19.8584 21.75ZM19.8584 24C22.3437 24 24.3584 21.9853 24.3584 19.5C24.3584 17.0147 22.3437 15 19.8584 15C17.3731 15 15.3584 17.0147 15.3584 19.5C15.3584 21.9853 17.3731 24 19.8584 24ZM24.7334 15.75C25.3547 15.75 25.8584 15.2463 25.8584 14.625C25.8584 14.0037 25.3547 13.5 24.7334 13.5C24.1121 13.5 23.6084 14.0037 23.6084 14.625C23.6084 15.2463 24.1121 15.75 24.7334 15.75Z" fill="white"/>
<rect x="1.3584" y="1" width="37" height="37" rx="18.5" stroke="white" stroke-width="2"/>
</svg>
