<svg width="240" height="50" viewBox="0 0 240 50" fill="none" xmlns="http://www.w3.org/2000/svg">
<path d="M139.5 12.4259L119.952 49.9894H108.66L114.375 39.4687L105.834 12.4259H116.545L121.318 28.6621L128.483 12.4259H139.5ZM153.407 42.3582L156.952 19.8349H151.237C149.575 26.6088 149.427 27.392 149.205 28.1647C147.607 35.0127 145.363 42.1465 133.499 43.1308L131.975 35.2244C135.309 34.5152 136.822 33.8167 138.198 31.6892C139.066 30.2815 140.008 27.953 142.114 19.1257L143.702 12.4153H168.244L163.535 42.3476H153.407V42.3582ZM198.513 42.3582L205.974 12.4259H216.981L221.468 26.6829L229.501 12.4259H240V42.3582H230.083L230.231 26.6194L221.257 42.3582H216.695L211.626 26.6829L208.08 42.3582H198.513ZM5.92671 2.61431C10.7104 0.560964 15.2719 0 20.2672 0C26.4903 0 34.1632 2.82599 34.3114 10.7324C34.3855 15.1778 32.5017 18.6389 27.5063 20.544C31.4116 21.8882 33.1578 25.4869 33.1578 29.1596C33.1578 39.1088 23.6751 43.1414 14.9861 43.1414C10.2765 43.1414 4.20161 42.083 0 39.7544L1.5981 30.7155C5.50337 32.9064 9.6309 34.1765 14.4146 34.1765C17.96 34.1765 21.6537 33.1922 21.6537 29.3078C21.6537 25.8467 18.6162 25.3493 15.4306 25.3493H8.69956L9.92724 16.7337H16.0127C19.6322 16.7337 23.3999 16.1727 23.3258 12.1507C23.1777 8.90135 18.9761 8.61558 16.9546 8.61558C12.245 8.68967 8.77365 9.674 4.36036 12.2142L5.92671 2.61431ZM198.217 29.583H179.177C179.029 35.1609 183.231 35.7959 185.548 35.7959C189.602 35.7959 193.221 34.9492 196.767 33.044L195.539 40.8764C191.634 42.7815 187.644 43.3425 183.379 43.3425C170.202 43.3425 168.678 34.166 168.678 29.5089C168.752 19.5597 174.542 11.431 185.622 11.431C197.137 11.4416 199.593 20.9039 198.217 29.583ZM184.966 18.0038C180.987 18.0038 179.897 21.3167 179.389 24.566H188.586C188.956 21.8882 188.956 18.0038 184.966 18.0038ZM56.3884 19.4221C55.9545 19.2845 55.2983 19.2104 54.8009 19.2104C48.8636 19.2104 45.3922 24.6507 45.3922 30.4403C45.3076 33.4674 46.6834 35.3726 49.0012 35.3726C50.6628 35.3726 52.2609 35.0868 53.9966 33.1816L56.3884 19.4221ZM67.5433 12.4259L62.8337 42.3582H53.0546L53.5626 39.0347H53.351C50.5252 42.5699 47.2655 43.2049 44.8842 43.2049C38.5871 43.2049 35.0417 39.3946 35.0417 31.6998C35.0417 18.5648 44.3762 11.5792 56.399 11.5792C60.8758 11.5792 64.4953 12.0025 67.5433 12.4259ZM89.3981 8.4039L88.7419 12.3624C90.7739 11.6533 91.7052 11.5898 94.2453 11.5898C102.066 11.5898 106.257 16.6702 106.257 24.3014C106.257 37.0131 97.8648 42.8662 88.0857 42.8662C86.4241 42.8662 84.6779 42.7286 84.0323 42.5169L82.8046 50H72.5281L76.8038 23.6664H76.5921C75.0046 24.7989 72.6128 27.9001 71.3745 29.7417C70.9406 30.3768 70.5067 30.6626 69.9987 30.4509L69.8505 30.3768C69.3425 30.091 69.1943 29.5301 69.5648 28.6092C71.0888 25.0106 73.6182 20.2053 77.6716 17.1041L79.1216 8.42506H89.3981V8.4039ZM87.5989 19.8455L85.1329 34.8116C85.9267 35.0233 86.8686 35.0233 87.2285 35.0233C92.8059 35.0233 95.6211 30.0804 95.5576 24.9259C95.4835 21.6025 93.8219 19.2104 90.4882 19.2104C89.0382 19.2104 88.1704 19.4856 87.5989 19.8455Z" fill="#970000"/>
</svg>
