<svg width="39" height="39" viewBox="0 0 39 39" fill="none" xmlns="http://www.w3.org/2000/svg">
<path d="M26.5325 21.5995C27.1793 22.2272 27.862 22.8178 28.4422 23.5088C28.6985 23.8159 28.9411 24.1328 29.1267 24.4891C29.3897 24.9957 29.1515 25.5532 28.6945 25.5835L25.8537 25.5822C25.121 25.6426 24.5365 25.3494 24.045 24.8515C23.6517 24.4533 23.2875 24.0295 22.9093 23.6178C22.7542 23.4496 22.5919 23.2912 22.3981 23.1661C22.0103 22.9159 21.6736 22.9925 21.452 23.3945C21.2263 23.8034 21.1751 24.2562 21.1529 24.7119C21.1225 25.3768 20.9203 25.5517 20.2484 25.5821C18.8123 25.6494 17.4495 25.4335 16.1834 24.7134C15.0672 24.0786 14.2016 23.1824 13.4482 22.1679C11.9814 20.1925 10.8581 18.0217 9.84848 15.7901C9.62122 15.2873 9.78743 15.0175 10.3455 15.0079C11.2723 14.99 12.1989 14.9913 13.1268 15.0066C13.5034 15.0121 13.7528 15.2268 13.8982 15.5805C14.3996 16.806 15.0132 17.9719 15.7832 19.0526C15.9883 19.3403 16.1975 19.628 16.4952 19.8305C16.8247 20.0547 17.0755 19.9804 17.2305 19.6156C17.3288 19.3843 17.3719 19.1352 17.394 18.8875C17.4675 18.0352 17.4772 17.1844 17.3484 16.3351C17.2693 15.8051 16.969 15.462 16.4369 15.3617C16.1654 15.3105 16.2058 15.2101 16.3372 15.0561C16.5656 14.7904 16.7803 14.625 17.2085 14.625H20.419C20.9245 14.7241 21.0367 14.9498 21.1059 15.4553L21.1086 19.0001C21.1031 19.1958 21.207 19.7766 21.5616 19.9061C21.8454 19.9983 22.0325 19.7726 22.2028 19.5937C22.9715 18.7828 23.5201 17.8244 24.0102 16.832C24.2278 16.3957 24.4148 15.9425 24.596 15.4897C24.7303 15.1537 24.9411 14.9884 25.3218 14.9957L28.4118 14.9985C28.5034 14.9985 28.5961 14.9998 28.6849 15.0149C29.2055 15.1031 29.3482 15.3257 29.1874 15.8311C28.934 16.624 28.441 17.2848 27.9589 17.9486C27.4436 18.6573 26.8925 19.3418 26.3815 20.0547C25.912 20.7059 25.9493 21.034 26.5325 21.5995Z" fill="white"/>
<rect x="1" y="1" width="37" height="37" rx="18.5" stroke="white" stroke-width="2"/>
</svg>
