<?xml version="1.0" encoding="UTF-8" standalone="no"?>
<svg
   xmlns:dc="http://purl.org/dc/elements/1.1/"
   xmlns:cc="http://creativecommons.org/ns#"
   xmlns:rdf="http://www.w3.org/1999/02/22-rdf-syntax-ns#"
   xmlns:svg="http://www.w3.org/2000/svg"
   xmlns="http://www.w3.org/2000/svg"
   xmlns:sodipodi="http://sodipodi.sourceforge.net/DTD/sodipodi-0.dtd"
   xmlns:inkscape="http://www.inkscape.org/namespaces/inkscape"
   enable-background="new 0 0 512 512"
   id="Layer_1"
   version="1.1"
   viewBox="0 0 512 512"
   xml:space="preserve"
   sodipodi:docname="youtube.svg"
   inkscape:version="1.0.2 (e86c870879, 2021-01-15, custom)"><metadata
     id="metadata13"><rdf:RDF><cc:Work
         rdf:about=""><dc:format>image/svg+xml</dc:format><dc:type
           rdf:resource="http://purl.org/dc/dcmitype/StillImage" /></cc:Work></rdf:RDF></metadata><defs
     id="defs11" /><sodipodi:namedview
     pagecolor="#ffffff"
     bordercolor="#666666"
     borderopacity="1"
     objecttolerance="10"
     gridtolerance="10"
     guidetolerance="10"
     inkscape:pageopacity="0"
     inkscape:pageshadow="2"
     inkscape:window-width="821"
     inkscape:window-height="480"
     id="namedview9"
     showgrid="false"
     inkscape:zoom="0.41503906"
     inkscape:cx="273.84051"
     inkscape:cy="212.44458"
     inkscape:window-x="0"
     inkscape:window-y="0"
     inkscape:window-maximized="0"
     inkscape:current-layer="Layer_1" /><g
     id="g6"
     transform="translate(7.2282353,-4.8188235)"><path
       d="M 258.8,507.2 C 120.4,507.8 6.6,392.6 9.9,251.9 13,118 123.9,7.2 262,8.7 398.7,10.2 511.8,124 508.1,264.8 504.6,398.3 394.6,507.9 258.8,507.2 Z M 40.2,258.2 C 41.3,383.3 142.4,479.5 261.8,478 378.1,476.5 477.5,382 477.6,258.1 477.7,132.9 375.7,36.4 255.9,38 139.6,39.6 41.1,134.3 40.2,258.2 Z"
       id="path2" /><path
       d="m 259.6782,341.02471 c -25.89113,-0.84261 -51.78227,-1.60862 -77.6734,-2.68103 -5.51527,-0.22981 -11.18375,-1.30222 -16.46921,-2.91084 -12.56257,-3.83005 -18.07784,-13.86478 -19.76306,-25.81454 -1.91502,-13.48177 -3.21724,-27.11675 -3.37044,-40.75172 -0.15321,-18.30764 0.99581,-36.69188 1.99162,-55.07611 0.45961,-7.8899 2.52783,-15.70321 6.89409,-22.44409 6.20468,-9.72833 15.93301,-13.02217 26.81035,-13.63498 50.48005,-2.91084 101.0367,-3.06404 151.51675,-0.61281 5.59188,0.30641 11.18375,0.68941 16.77562,1.30222 12.56256,1.53202 21.67808,8.1197 25.12513,20.37586 2.52783,9.11552 4.28965,18.69064 4.59605,28.18917 0.6894,20.60566 0.53622,41.28793 0.0766,61.9702 -0.22981,8.57931 -1.68523,17.23522 -3.75345,25.66133 -3.44705,14.24778 -13.25197,22.06108 -27.80616,23.2867 -12.48596,0.99581 -24.97192,1.68522 -37.45789,1.91502 -15.7798,0.30641 -31.6362,0.0766 -47.49261,0.0766 0,0.3064 0,0.76601 0,1.14901 z m 39.14311,-85.4867 c -21.44828,-11.18375 -42.20715,-21.98449 -63.19582,-32.93843 0,22.21429 0,43.66256 0,65.72365 21.14187,-10.95394 41.90074,-21.67808 63.19582,-32.78522 z"
       id="path4"
       style="stroke-width:0.76601" /></g></svg>
